<?xml version="1.0" encoding="UTF-8"?> <svg xmlns="http://www.w3.org/2000/svg" id="Layer_2" data-name="Layer 2" viewBox="0 0 189.05 123.65"><defs><style> .cls-1 { fill: #f6f5f4; } .cls-1, .cls-2, .cls-3, .cls-4, .cls-5 { stroke-width: 0px; } .cls-2 { fill: #e63e32; } .cls-3 { fill: #030303; } .cls-4 { fill: #eb6d35; } .cls-5 { fill: #f09133; } </style></defs><g id="Layer_1-2" data-name="Layer 1"><g><circle class="cls-2" cx="43.61" cy="43.61" r="43.61"></circle><circle class="cls-4" cx="94.1" cy="43.61" r="43.61"></circle><circle class="cls-5" cx="145.43" cy="43.61" r="43.61"></circle><g><path class="cls-3" d="M10.62,111c-.29,0-.53-.1-.72-.29-.2-.19-.29-.43-.29-.71v-12.97c0-.29.1-.53.29-.72.2-.19.44-.28.72-.28s.54.09.73.28c.19.18.28.42.28.72v5.5h9.07v-5.5c0-.29.1-.53.29-.72.2-.19.44-.28.72-.28s.54.09.72.28c.18.18.27.42.27.72v12.97c0,.28-.09.52-.27.71-.18.19-.42.29-.72.29s-.53-.1-.72-.29c-.2-.19-.29-.43-.29-.71v-5.71h-9.07v5.71c0,.28-.09.52-.28.71-.19.19-.43.29-.73.29Z"></path><path class="cls-3" d="M28.65,111.08c-.95,0-1.81-.23-2.56-.7-.76-.47-1.35-1.1-1.79-1.9-.44-.8-.66-1.7-.66-2.71s.24-1.92.71-2.72c.48-.8,1.12-1.44,1.94-1.91.81-.47,1.73-.7,2.75-.7s1.93.23,2.74.7c.81.47,1.45,1.1,1.93,1.91.48.8.71,1.71.71,2.72h-.76c0,1.01-.22,1.91-.66,2.71-.44.8-1.03,1.43-1.79,1.9-.76.47-1.61.7-2.56.7ZM29.04,109.35c.67,0,1.26-.16,1.78-.47.52-.31.93-.74,1.23-1.28.3-.54.45-1.15.45-1.83s-.15-1.31-.45-1.85c-.3-.54-.71-.97-1.23-1.28-.52-.31-1.11-.47-1.78-.47s-1.24.16-1.77.47c-.53.31-.95.74-1.25,1.28-.31.54-.46,1.16-.46,1.85s.15,1.29.46,1.83c.31.54.72.97,1.25,1.28.53.31,1.12.47,1.77.47ZM33.42,111.02c-.29,0-.52-.09-.71-.28-.19-.18-.28-.42-.28-.7v-2.93l.37-2.03,1.62.69v4.27c0,.28-.09.51-.28.7-.19.19-.43.28-.71.28Z"></path><path class="cls-3" d="M36.14,115.49c-.29,0-.52-.09-.71-.28-.19-.18-.28-.42-.28-.7v-8.74c.01-1.01.25-1.92.72-2.72s1.11-1.44,1.92-1.91c.81-.47,1.72-.7,2.74-.7s1.95.23,2.76.7c.81.47,1.45,1.1,1.93,1.91.48.8.71,1.71.71,2.72s-.22,1.91-.66,2.71c-.44.8-1.03,1.43-1.79,1.9-.76.47-1.61.7-2.56.7-.77,0-1.48-.16-2.12-.47-.65-.31-1.2-.74-1.65-1.27v5.17c0,.28-.09.51-.27.7-.18.19-.42.28-.72.28ZM40.52,109.35c.66,0,1.26-.16,1.78-.47.52-.31.94-.74,1.24-1.28.31-.54.46-1.15.46-1.83s-.15-1.31-.46-1.85c-.31-.54-.72-.97-1.24-1.28-.52-.31-1.11-.47-1.78-.47s-1.24.16-1.77.47c-.53.31-.94.74-1.24,1.28s-.45,1.16-.45,1.85.15,1.29.45,1.83.71.97,1.24,1.28c.53.31,1.12.47,1.77.47Z"></path><path class="cls-3" d="M47.64,115.49c-.29,0-.52-.09-.71-.28-.19-.18-.28-.42-.28-.7v-8.74c.01-1.01.25-1.92.72-2.72s1.11-1.44,1.92-1.91c.81-.47,1.72-.7,2.74-.7s1.95.23,2.76.7c.81.47,1.45,1.1,1.93,1.91.48.8.71,1.71.71,2.72s-.22,1.91-.66,2.71c-.44.8-1.03,1.43-1.79,1.9-.76.47-1.61.7-2.56.7-.77,0-1.48-.16-2.12-.47-.65-.31-1.2-.74-1.65-1.27v5.17c0,.28-.09.51-.27.7-.18.19-.42.28-.72.28ZM52.02,109.35c.66,0,1.26-.16,1.78-.47.52-.31.94-.74,1.24-1.28.31-.54.46-1.15.46-1.83s-.15-1.31-.46-1.85c-.31-.54-.72-.97-1.24-1.28-.52-.31-1.11-.47-1.78-.47s-1.24.16-1.77.47c-.53.31-.94.74-1.24,1.28s-.45,1.16-.45,1.85.15,1.29.45,1.83.71.97,1.24,1.28c.53.31,1.12.47,1.77.47Z"></path><path class="cls-3" d="M59.33,98.81c-.35,0-.65-.12-.91-.37s-.38-.55-.38-.89.13-.64.38-.89.56-.37.91-.37.66.12.91.37c.25.25.38.55.38.89s-.13.64-.38.89c-.25.25-.56.37-.91.37ZM59.33,111c-.29,0-.52-.09-.71-.28-.19-.18-.28-.42-.28-.7v-8.53c0-.29.09-.53.28-.71.19-.18.43-.27.71-.27s.54.09.72.27.27.42.27.71v8.53c0,.28-.09.51-.27.7-.18.19-.42.28-.72.28Z"></path><path class="cls-3" d="M62.79,111.02c-.29,0-.52-.09-.71-.28-.19-.18-.28-.42-.28-.7v-8.55c0-.29.09-.53.28-.71s.43-.27.71-.27.54.09.72.27c.18.18.27.42.27.71v8.55c0,.28-.09.51-.27.7-.18.19-.42.28-.72.28ZM70.83,111.02c-.29,0-.52-.09-.71-.28-.19-.18-.28-.42-.28-.7v-4.71c0-.73-.14-1.32-.41-1.78s-.64-.8-1.1-1.02-.99-.34-1.59-.34c-.55,0-1.04.11-1.49.33-.44.22-.8.51-1.06.87-.26.36-.39.78-.39,1.25h-1.23c0-.8.2-1.52.6-2.16.4-.63.94-1.13,1.63-1.5.69-.37,1.47-.56,2.33-.56s1.7.19,2.42.57,1.27.93,1.68,1.66.62,1.62.62,2.68v4.71c0,.28-.09.51-.28.7-.19.19-.43.28-.71.28Z"></path><path class="cls-3" d="M77.91,111.08c-1.08,0-2.04-.23-2.88-.68s-1.5-1.08-1.98-1.88c-.48-.8-.71-1.72-.71-2.75s.23-1.97.67-2.77c.45-.8,1.07-1.42,1.87-1.88.79-.45,1.71-.68,2.74-.68s1.89.22,2.62.66c.73.44,1.29,1.05,1.67,1.82.38.77.58,1.66.58,2.67,0,.24-.08.44-.25.6-.17.16-.38.24-.65.24h-7.88v-1.53h7.82l-.8.54c-.01-.64-.14-1.21-.39-1.71-.25-.5-.6-.9-1.06-1.2-.46-.29-1.01-.44-1.66-.44-.74,0-1.38.16-1.91.48-.53.32-.93.76-1.2,1.31-.27.56-.41,1.18-.41,1.89s.16,1.33.49,1.88c.33.55.78.98,1.35,1.3.57.32,1.23.48,1.98.48.4,0,.82-.07,1.24-.22.42-.15.77-.32,1.03-.51.2-.14.41-.21.64-.22.23,0,.43.06.6.2.22.19.34.4.35.63.01.23-.09.43-.31.59-.44.35-.99.63-1.65.84s-1.29.33-1.89.33Z"></path><path class="cls-3" d="M86.67,111.08c-.91,0-1.76-.14-2.53-.41-.78-.28-1.38-.62-1.81-1.04-.2-.2-.28-.44-.24-.7.03-.26.16-.48.38-.64.26-.2.52-.29.77-.26.25.03.47.14.66.33.22.24.58.47,1.07.68.49.21,1.03.32,1.63.32.76,0,1.33-.12,1.73-.36.4-.24.6-.56.62-.94.01-.38-.17-.72-.56-1-.38-.28-1.09-.51-2.1-.69-1.32-.25-2.27-.64-2.86-1.15-.59-.51-.89-1.14-.89-1.88,0-.65.2-1.19.59-1.62.39-.43.89-.75,1.51-.96.61-.21,1.25-.32,1.92-.32.86,0,1.62.13,2.29.4.67.27,1.19.64,1.58,1.11.18.2.27.42.25.64-.01.22-.12.41-.33.57-.21.14-.46.19-.74.13-.29-.05-.53-.17-.72-.34-.33-.31-.68-.52-1.06-.63-.38-.12-.81-.17-1.31-.17-.57,0-1.06.1-1.46.29-.4.19-.6.47-.6.84,0,.23.06.44.19.62.12.19.37.35.73.5.36.15.9.29,1.6.43.98.19,1.75.43,2.32.73.57.29.97.64,1.22,1.03s.37.84.37,1.35c0,.59-.16,1.12-.48,1.59s-.79.85-1.41,1.13c-.62.28-1.39.42-2.32.42Z"></path><path class="cls-3" d="M95.04,111.08c-.91,0-1.76-.14-2.53-.41-.78-.28-1.38-.62-1.81-1.04-.2-.2-.28-.44-.24-.7.03-.26.16-.48.38-.64.26-.2.52-.29.77-.26.25.03.47.14.66.33.22.24.58.47,1.07.68.49.21,1.03.32,1.63.32.76,0,1.33-.12,1.73-.36.4-.24.6-.56.62-.94.01-.38-.17-.72-.56-1-.38-.28-1.09-.51-2.1-.69-1.32-.25-2.27-.64-2.86-1.15-.59-.51-.89-1.14-.89-1.88,0-.65.2-1.19.59-1.62.39-.43.89-.75,1.51-.96.61-.21,1.25-.32,1.92-.32.86,0,1.62.13,2.29.4.67.27,1.19.64,1.58,1.11.18.2.27.42.25.64-.01.22-.12.41-.33.57-.21.14-.46.19-.74.13-.29-.05-.53-.17-.72-.34-.33-.31-.68-.52-1.06-.63-.38-.12-.81-.17-1.31-.17-.57,0-1.06.1-1.46.29-.4.19-.6.47-.6.84,0,.23.06.44.19.62.12.19.37.35.73.5.36.15.9.29,1.6.43.98.19,1.75.43,2.32.73.57.29.97.64,1.22,1.03s.37.84.37,1.35c0,.59-.16,1.12-.48,1.59s-.79.85-1.41,1.13c-.62.28-1.39.42-2.32.42Z"></path><path class="cls-3" d="M102.58,111c-.36,0-.65-.15-.84-.46-.2-.31-.21-.63-.06-.98l5.5-12.86c.2-.45.51-.67.96-.67.47,0,.79.22.96.67l5.51,12.9c.14.36.12.68-.07.97-.19.29-.47.43-.85.43-.2,0-.38-.05-.56-.16-.18-.11-.3-.26-.38-.45l-4.85-11.8h.55l-4.93,11.8c-.09.2-.23.36-.4.46-.18.1-.36.15-.54.15ZM103.62,107.71l.78-1.65h7.67l.78,1.65h-9.23Z"></path><path class="cls-3" d="M118.95,111.08c-1.04,0-1.97-.23-2.79-.7-.81-.47-1.45-1.1-1.92-1.9-.46-.8-.69-1.7-.69-2.71s.23-1.96.68-2.76c.46-.8,1.08-1.43,1.88-1.89.79-.45,1.71-.68,2.74-.68.77,0,1.47.14,2.11.43s1.21.72,1.72,1.29c.18.2.25.42.2.63-.05.22-.2.41-.43.58-.18.13-.38.17-.61.12-.22-.04-.42-.16-.61-.33-.64-.66-1.43-1-2.38-1-.67,0-1.25.15-1.76.45-.51.3-.91.72-1.19,1.25s-.43,1.17-.43,1.9c0,.69.15,1.3.44,1.84.29.54.7.96,1.22,1.27.52.31,1.13.47,1.82.47.46,0,.86-.05,1.2-.16.34-.11.66-.28.95-.51.21-.17.42-.26.65-.28.22-.02.42.04.59.18.22.18.35.38.37.6s-.05.42-.23.6c-.94.86-2.11,1.28-3.52,1.28Z"></path><path class="cls-3" d="M128.06,111.08c-.95,0-1.81-.23-2.56-.7-.76-.47-1.35-1.1-1.79-1.9-.44-.8-.66-1.7-.66-2.71s.24-1.92.71-2.72c.48-.8,1.12-1.44,1.94-1.91.81-.47,1.73-.7,2.75-.7s1.93.23,2.74.7c.81.47,1.45,1.1,1.93,1.91.48.8.71,1.71.71,2.72h-.76c0,1.01-.22,1.91-.66,2.71-.44.8-1.03,1.43-1.79,1.9-.76.47-1.61.7-2.56.7ZM128.45,109.35c.67,0,1.26-.16,1.78-.47.52-.31.93-.74,1.23-1.28s.45-1.15.45-1.83-.15-1.31-.45-1.85-.71-.97-1.23-1.28c-.52-.31-1.11-.47-1.78-.47s-1.24.16-1.77.47c-.53.31-.95.74-1.25,1.28-.31.54-.46,1.16-.46,1.85s.15,1.29.46,1.83c.31.54.72.97,1.25,1.28.53.31,1.12.47,1.77.47ZM132.83,111.02c-.29,0-.53-.09-.71-.28-.19-.18-.28-.42-.28-.7v-2.93l.37-2.03,1.62.69v4.27c0,.28-.09.51-.28.7-.19.19-.43.28-.71.28Z"></path><path class="cls-3" d="M139.4,111.08c-1.02,0-1.93-.23-2.75-.7-.82-.47-1.46-1.1-1.94-1.91-.48-.81-.71-1.71-.71-2.72s.22-1.91.66-2.71c.44-.8,1.03-1.43,1.79-1.9.76-.47,1.61-.7,2.56-.7.77,0,1.48.16,2.13.47.65.31,1.2.74,1.64,1.27v-5.17c0-.29.09-.53.28-.71.19-.18.43-.27.71-.27s.54.09.72.27.27.42.27.71v8.74c0,1.01-.24,1.92-.71,2.72-.48.8-1.12,1.44-1.93,1.91-.81.47-1.72.7-2.74.7ZM139.4,109.35c.67,0,1.26-.16,1.78-.47.52-.31.93-.74,1.23-1.29.3-.55.45-1.16.45-1.84s-.15-1.3-.45-1.84c-.3-.54-.71-.96-1.23-1.27-.52-.31-1.11-.47-1.78-.47s-1.24.16-1.77.47c-.53.31-.95.74-1.25,1.27-.31.54-.46,1.15-.46,1.84s.15,1.29.46,1.84c.31.55.72.98,1.25,1.29.53.31,1.12.47,1.77.47Z"></path><path class="cls-3" d="M151.08,111.08c-1.08,0-2.04-.23-2.88-.68s-1.5-1.08-1.98-1.88c-.48-.8-.71-1.72-.71-2.75s.23-1.97.67-2.77c.45-.8,1.07-1.42,1.87-1.88.79-.45,1.71-.68,2.74-.68s1.89.22,2.62.66c.73.44,1.29,1.05,1.67,1.82.38.77.58,1.66.58,2.67,0,.24-.08.44-.25.6-.17.16-.38.24-.65.24h-7.88v-1.53h7.82l-.8.54c-.01-.64-.14-1.21-.39-1.71-.25-.5-.6-.9-1.06-1.2-.46-.29-1.01-.44-1.66-.44-.74,0-1.38.16-1.91.48-.53.32-.93.76-1.2,1.31-.27.56-.41,1.18-.41,1.89s.16,1.33.49,1.88c.33.55.78.98,1.35,1.3.57.32,1.23.48,1.97.48.4,0,.82-.07,1.24-.22.42-.15.77-.32,1.03-.51.2-.14.41-.21.64-.22.23,0,.43.06.6.2.22.19.34.4.35.63.01.23-.09.43-.31.59-.44.35-.99.63-1.65.84-.66.22-1.29.33-1.89.33Z"></path><path class="cls-3" d="M156.94,111.02c-.29,0-.52-.09-.71-.28-.19-.18-.28-.42-.28-.7v-8.53c0-.29.09-.53.28-.71.19-.18.43-.27.71-.27s.54.09.72.27c.18.18.27.42.27.71v8.53c0,.28-.09.51-.27.7-.18.19-.42.28-.72.28ZM163.48,111.02c-.29,0-.52-.09-.71-.28-.19-.18-.28-.42-.28-.7v-5.48c0-.8-.2-1.4-.61-1.79-.4-.39-.93-.58-1.58-.58s-1.24.23-1.68.69-.66,1.05-.66,1.76h-1.23c0-.83.17-1.56.51-2.19.34-.63.81-1.13,1.41-1.49.6-.36,1.28-.54,2.05-.54s1.4.16,1.97.48c.57.32,1.02.79,1.34,1.41.32.62.48,1.37.48,2.25v5.48c0,.28-.09.51-.27.7-.18.19-.42.28-.72.28ZM169.99,111.02c-.29,0-.52-.09-.71-.28-.19-.18-.28-.42-.28-.7v-5.48c0-.8-.2-1.4-.61-1.79-.4-.39-.93-.58-1.58-.58s-1.24.23-1.67.69c-.44.46-.65,1.05-.65,1.76h-1.62c0-.83.18-1.56.55-2.19s.88-1.13,1.54-1.49c.66-.36,1.41-.54,2.26-.54.74,0,1.4.16,1.97.48.57.32,1.02.79,1.34,1.41.32.62.48,1.37.48,2.25v5.48c0,.28-.09.51-.27.7-.18.19-.42.28-.72.28Z"></path><path class="cls-3" d="M176.26,110.58c-.25.1-.48.11-.69.03-.22-.08-.39-.25-.52-.49l-4.48-8.34c-.13-.24-.15-.48-.05-.7s.27-.39.52-.49c.25-.1.48-.11.7-.03s.39.25.51.49l4.28,8.34c.13.24.18.48.15.7-.03.22-.17.39-.42.49ZM173.96,115.6c-.13,0-.29-.04-.47-.12-.57-.26-.73-.66-.47-1.21l5.96-13.2c.26-.54.67-.69,1.23-.46.59.24.75.65.49,1.21l-5.98,13.18c-.16.4-.41.59-.76.59Z"></path></g><path class="cls-1" d="M21.54,39.89h11.03v-8.43c0-.54.12-1.04.35-1.5s.56-.87.96-1.22c.41-.34.88-.61,1.42-.8.54-.19,1.11-.29,1.71-.29s1.17.1,1.7.29c.53.19.99.46,1.37.8.39.34.69.75.91,1.22s.33.97.33,1.5v24.48c0,.54-.11,1.04-.34,1.51-.23.47-.54.87-.94,1.22-.4.34-.86.61-1.39.8-.53.19-1.1.29-1.7.29s-1.18-.1-1.71-.29c-.54-.19-1.01-.46-1.4-.8-.4-.34-.71-.75-.94-1.22-.23-.47-.34-.97-.34-1.51v-8.33h-11.03v8.33c0,.54-.11,1.04-.34,1.51-.23.47-.54.87-.94,1.22-.4.34-.86.61-1.4.8-.54.19-1.11.29-1.71.29s-1.17-.1-1.7-.29c-.53-.19-.99-.46-1.39-.8-.4-.34-.71-.75-.94-1.22-.23-.47-.34-.97-.34-1.51v-24.48c0-.54.11-1.04.34-1.5.23-.47.54-.87.94-1.22.4-.34.86-.61,1.39-.8.53-.19,1.1-.29,1.7-.29s1.18.1,1.71.29c.54.19,1.01.46,1.4.8.4.34.71.75.94,1.22.23.47.34.97.34,1.5v8.43Z"></path><path class="cls-1" d="M72.64,52.46h-10.06l-1.98,4.97c-.2.52-.49.95-.88,1.3-.38.35-.82.61-1.29.78-.48.17-.98.25-1.5.24-.53,0-1.04-.12-1.54-.34-.52-.22-.94-.51-1.28-.88s-.58-.78-.73-1.24-.21-.94-.19-1.46c.02-.51.15-1.02.39-1.52l10.61-24.31c.33-.75.81-1.33,1.43-1.74.62-.41,1.33-.61,2.13-.61.75,0,1.44.2,2.06.6s1.09.98,1.4,1.73l10.44,24.31c.22.5.34,1.01.38,1.52s-.02,1-.16,1.45c-.14.46-.38.88-.7,1.25s-.74.67-1.24.89c-.5.22-1.01.33-1.53.34-.52,0-1.01-.08-1.48-.25-.47-.18-.9-.44-1.28-.79-.38-.35-.69-.78-.93-1.28l-2.06-4.97ZM65.66,44.71h3.79l-1.93-4.67-1.86,4.67Z"></path><path class="cls-1" d="M102.91,47.58v8.38c0,.54-.1,1.04-.3,1.51s-.48.87-.83,1.22c-.35.34-.77.61-1.24.8-.48.19-.98.29-1.52.29s-1.04-.1-1.5-.29c-.47-.19-.88-.46-1.23-.8-.35-.34-.63-.75-.83-1.22s-.3-.97-.3-1.51v-24.48c0-.54.1-1.03.3-1.49.2-.46.48-.86.83-1.2.35-.34.76-.61,1.23-.81.47-.2.97-.3,1.5-.3h8.33c1.37,0,2.67.27,3.89.8,1.22.54,2.28,1.26,3.19,2.17.9.91,1.62,1.97,2.14,3.19.53,1.21.79,2.5.79,3.85s-.26,2.66-.79,3.86c-.53,1.2-1.24,2.25-2.14,3.15-.9.89-1.97,1.6-3.19,2.12s-2.52.78-3.89.78h-4.44ZM102.91,35.32v4.54h4.47c.25,0,.51-.07.78-.2.27-.13.51-.31.73-.54.22-.23.39-.48.53-.78.13-.29.2-.59.2-.89,0-.28-.07-.56-.2-.81-.13-.26-.31-.48-.53-.68-.22-.19-.46-.35-.71-.46-.26-.12-.51-.18-.77-.18h-4.49Z"></path><path class="cls-1" d="M130.86,47.58v8.38c0,.54-.1,1.04-.3,1.51-.2.47-.48.87-.83,1.22-.35.34-.77.61-1.24.8-.48.19-.98.29-1.52.29s-1.04-.1-1.5-.29c-.47-.19-.88-.46-1.23-.8-.35-.34-.63-.75-.83-1.22-.2-.47-.3-.97-.3-1.51v-24.48c0-.54.1-1.03.3-1.49.2-.46.48-.86.83-1.2.35-.34.76-.61,1.23-.81s.97-.3,1.5-.3h8.33c1.37,0,2.67.27,3.89.8,1.22.54,2.28,1.26,3.19,2.17.9.91,1.62,1.97,2.14,3.19.53,1.21.79,2.5.79,3.85s-.26,2.66-.79,3.86c-.53,1.2-1.24,2.25-2.14,3.15s-1.96,1.6-3.19,2.12-2.52.78-3.89.78h-4.44ZM130.86,35.32v4.54h4.46c.25,0,.51-.07.78-.2.27-.13.51-.31.73-.54.22-.23.39-.48.53-.78.13-.29.2-.59.2-.89,0-.28-.07-.56-.2-.81-.13-.26-.31-.48-.53-.68-.22-.19-.46-.35-.71-.46-.26-.12-.51-.18-.76-.18h-4.49Z"></path><path class="cls-1" d="M162.78,40.47l7.05-11.41c.35-.4.76-.71,1.22-.94.46-.23.94-.35,1.43-.38.49-.02.98.04,1.47.2.49.16.93.41,1.33.77.38.33.69.72.93,1.15.23.44.37.9.41,1.38.04.49-.01.98-.16,1.48-.15.5-.41,1-.78,1.48l-9.01,13.92v7.83c0,.54-.1,1.04-.3,1.51-.2.47-.48.87-.83,1.22-.35.34-.76.61-1.23.8-.47.19-.97.29-1.51.29s-1.04-.1-1.5-.29c-.47-.19-.88-.46-1.23-.8-.35-.34-.63-.75-.83-1.22-.2-.47-.3-.97-.3-1.51v-7.78l-9.11-13.92c-.33-.4-.58-.84-.73-1.33-.15-.48-.21-.97-.17-1.47.03-.49.16-.97.39-1.44.23-.47.54-.89.94-1.25.38-.35.82-.61,1.32-.78.49-.17.99-.24,1.49-.21.5.02.98.15,1.44.36.46.22.86.54,1.19.98l7.07,11.36Z"></path><circle class="cls-1" cx="45.58" cy="56.03" r="3.73"></circle><circle class="cls-1" cx="86.66" cy="56.03" r="3.73"></circle><circle class="cls-1" cx="107.61" cy="56.03" r="3.73"></circle><circle class="cls-1" cx="135.41" cy="56.03" r="3.73"></circle><circle class="cls-1" cx="171.73" cy="56.03" r="3.73"></circle><g><path class="cls-4" d="M29.01,123.55c-.09,0-.17-.03-.24-.09s-.1-.14-.1-.23v-4.29c0-.1.03-.18.1-.24.06-.06.14-.09.24-.09h1.29c.32,0,.61.07.86.21s.44.33.58.58.21.53.21.85-.07.58-.21.82c-.14.24-.33.43-.58.56-.25.14-.54.2-.86.2h-.96v1.39c0,.09-.03.17-.09.23-.06.06-.14.09-.24.09ZM29.35,121.23h.96c.2,0,.37-.04.52-.13.15-.08.27-.2.36-.35.09-.15.13-.32.13-.51,0-.2-.04-.38-.13-.54-.09-.15-.2-.28-.36-.36-.15-.09-.33-.13-.52-.13h-.96v2.01Z"></path><path class="cls-4" d="M34.32,123.55c-.09,0-.17-.03-.24-.09s-.1-.14-.1-.23v-4.29c0-.1.03-.18.1-.24.06-.06.14-.09.24-.09h2.92c.1,0,.18.03.24.09.06.06.09.13.09.22s-.03.16-.09.21c-.06.05-.14.08-.24.08h-2.58v1.54h1.85c.1,0,.18.03.24.09.06.06.09.13.09.22s-.03.16-.09.22c-.06.06-.14.09-.24.09h-1.85v1.58h2.58c.1,0,.18.03.24.08.06.05.09.13.09.21,0,.09-.03.17-.09.23-.06.06-.14.08-.24.08h-2.92Z"></path><path class="cls-4" d="M42.12,123.61c-.38,0-.73-.06-1.04-.19-.31-.12-.58-.3-.81-.53s-.4-.49-.53-.8c-.12-.31-.19-.65-.19-1.02s.06-.71.19-1.02c.12-.31.3-.57.53-.8.23-.23.5-.4.81-.53.31-.12.66-.19,1.04-.19s.72.06,1.04.19c.31.12.58.3.81.53.23.23.4.49.53.8.12.31.19.65.19,1.02s-.06.71-.19,1.02c-.12.31-.3.58-.53.8-.23.23-.5.4-.81.53-.31.12-.66.19-1.04.19ZM42.12,123.02c.28,0,.54-.05.77-.15.23-.1.44-.24.61-.41s.3-.38.4-.62c.09-.24.14-.49.14-.77s-.05-.53-.14-.77c-.09-.24-.23-.44-.4-.62-.17-.18-.38-.31-.61-.41-.23-.1-.49-.15-.77-.15s-.54.05-.77.15c-.23.1-.44.23-.61.41-.17.17-.3.38-.4.62s-.14.49-.14.77.05.53.14.77.23.44.4.62c.17.17.37.31.61.41.23.1.49.15.77.15Z"></path><path class="cls-4" d="M47.36,123.55c-.09,0-.17-.03-.24-.09s-.1-.14-.1-.23v-4.29c0-.1.03-.18.1-.24.06-.06.14-.09.24-.09h1.29c.32,0,.61.07.86.21s.44.33.58.58.21.53.21.85-.07.58-.21.82c-.14.24-.33.43-.58.56-.25.14-.54.2-.86.2h-.96v1.39c0,.09-.03.17-.09.23-.06.06-.14.09-.24.09ZM47.69,121.23h.96c.2,0,.37-.04.52-.13.15-.08.27-.2.36-.35.09-.15.13-.32.13-.51,0-.2-.04-.38-.13-.54-.09-.15-.2-.28-.36-.36-.15-.09-.33-.13-.52-.13h-.96v2.01Z"></path><path class="cls-4" d="M52.66,123.55c-.09,0-.17-.03-.24-.09-.06-.06-.09-.14-.09-.23v-4.29c0-.09.03-.17.1-.23.06-.06.14-.09.23-.09s.17.03.24.09c.06.06.1.14.1.23v3.96h2.34c.09,0,.17.03.24.09.06.06.1.14.1.23s-.03.17-.1.23c-.06.06-.14.09-.24.09h-2.67Z"></path><path class="cls-4" d="M58.1,123.55c-.09,0-.17-.03-.24-.09s-.1-.14-.1-.23v-4.29c0-.1.03-.18.1-.24.06-.06.14-.09.24-.09h2.92c.1,0,.18.03.24.09.06.06.09.13.09.22s-.03.16-.09.21c-.06.05-.14.08-.24.08h-2.58v1.54h1.85c.1,0,.18.03.24.09.06.06.09.13.09.22s-.03.16-.09.22c-.06.06-.14.09-.24.09h-1.85v1.58h2.58c.1,0,.18.03.24.08.06.05.09.13.09.21,0,.09-.03.17-.09.23-.06.06-.14.08-.24.08h-2.92Z"></path></g><g><path class="cls-4" d="M118.82,123.55c-.09,0-.17-.03-.23-.09-.07-.06-.1-.14-.1-.23v-1.47l-1.72-2.63c-.06-.09-.08-.17-.07-.25.01-.08.05-.14.11-.19.06-.05.13-.07.22-.07.07,0,.13.02.17.05.04.03.08.08.12.14l1.64,2.55h-.26l1.67-2.58c.04-.05.08-.09.12-.12.05-.03.11-.04.17-.04.08,0,.14.03.19.08s.08.12.09.2c0,.08-.01.16-.06.24l-1.74,2.63v1.47c0,.09-.03.17-.1.23s-.14.09-.24.09Z"></path><path class="cls-4" d="M124.93,123.61c-.38,0-.73-.06-1.04-.19-.31-.12-.58-.3-.81-.53-.23-.23-.4-.49-.53-.8-.12-.31-.19-.65-.19-1.02s.06-.71.19-1.02c.12-.31.3-.57.53-.8s.5-.4.81-.53c.31-.12.66-.19,1.04-.19s.72.06,1.04.19c.31.12.58.3.81.53.23.23.41.49.53.8.12.31.19.65.19,1.02s-.06.71-.19,1.02c-.12.31-.3.58-.53.8-.23.23-.5.4-.81.53-.31.12-.66.19-1.04.19ZM124.93,123.02c.28,0,.54-.05.77-.15.24-.1.44-.24.61-.41.17-.17.3-.38.4-.62s.14-.49.14-.77-.05-.53-.14-.77-.22-.44-.4-.62c-.17-.18-.38-.31-.61-.41-.23-.1-.49-.15-.77-.15s-.54.05-.77.15c-.24.1-.44.23-.61.41-.17.17-.3.38-.4.62s-.14.49-.14.77.05.53.14.77.23.44.4.62.37.31.61.41c.23.1.49.15.77.15Z"></path><path class="cls-4" d="M131.95,123.65c-.41,0-.78-.08-1.1-.22-.32-.15-.57-.36-.75-.62s-.27-.57-.27-.91v-2.96c0-.1.03-.18.1-.24.06-.06.14-.09.24-.09.1,0,.18.03.24.09.06.06.09.14.09.24v2.96c0,.23.06.43.18.6s.29.31.51.41c.22.1.47.15.75.15s.51-.05.72-.15c.21-.1.37-.24.49-.41s.18-.38.18-.6v-2.96c0-.1.03-.18.1-.24.06-.06.14-.09.24-.09s.18.03.24.09c.06.06.09.14.09.24v2.96c0,.34-.09.65-.26.91-.17.27-.42.47-.73.62-.31.15-.67.22-1.07.22Z"></path><path class="cls-4" d="M136.91,123.55c-.09,0-.17-.03-.24-.09s-.1-.14-.1-.23v-4.29c0-.1.03-.18.1-.24.06-.06.14-.09.24-.09h1.16c.32,0,.61.07.86.2s.44.32.58.55c.14.23.21.5.21.81,0,.29-.07.54-.21.77-.14.22-.33.4-.58.53-.25.13-.54.19-.86.19h-.83v1.58c0,.09-.03.17-.09.23s-.14.09-.24.09ZM137.25,121.04h.83c.2,0,.37-.04.52-.11.15-.07.27-.18.36-.31s.13-.28.13-.45c0-.19-.04-.35-.13-.49s-.21-.25-.36-.33-.33-.12-.52-.12h-.83v1.82ZM139.59,123.55c-.06,0-.12-.01-.17-.04s-.09-.07-.13-.12l-1.16-1.84.65-.18,1.06,1.67c.08.12.09.24.03.34s-.15.16-.29.16Z"></path><path class="cls-4" d="M143.54,123.61c-.28,0-.54-.04-.79-.13-.25-.08-.47-.2-.65-.35-.19-.15-.32-.33-.41-.53-.04-.09-.04-.17,0-.25.04-.08.12-.12.23-.15.08-.02.15,0,.23.04s.13.1.17.18c.05.11.14.2.26.29.12.09.26.16.43.21.17.06.34.08.53.08.21,0,.4-.03.57-.1.17-.06.32-.15.42-.28.11-.12.16-.27.16-.45,0-.22-.09-.42-.27-.6-.18-.18-.47-.29-.88-.33-.53-.05-.95-.21-1.26-.46-.31-.26-.46-.58-.46-.96,0-.28.08-.51.24-.71s.38-.34.65-.44c.27-.1.58-.15.91-.15.26,0,.49.04.69.11.2.07.37.17.51.3.15.13.27.28.38.45.06.09.08.18.07.26s-.05.15-.13.19c-.08.05-.17.06-.26.03-.09-.03-.17-.08-.21-.17-.07-.12-.15-.23-.25-.31-.1-.08-.21-.15-.35-.2-.13-.05-.29-.07-.47-.07-.32,0-.58.05-.8.17-.21.12-.32.31-.32.55,0,.13.03.25.1.36.07.12.19.22.37.3s.44.14.77.18c.51.05.91.2,1.2.46.29.26.43.59.43,1.01,0,.24-.05.45-.15.63-.1.18-.24.33-.41.45-.17.12-.36.21-.58.27-.22.06-.44.09-.67.09Z"></path><path class="cls-4" d="M148.01,123.55c-.09,0-.17-.03-.24-.09s-.1-.14-.1-.23v-4.29c0-.1.03-.18.1-.24.06-.06.14-.09.24-.09h2.92c.1,0,.18.03.24.09.06.06.09.13.09.22s-.03.16-.09.21c-.06.05-.14.08-.24.08h-2.58v1.54h1.85c.1,0,.18.03.24.09.06.06.09.13.09.22s-.03.16-.09.22-.14.09-.24.09h-1.85v1.58h2.58c.1,0,.18.03.24.08.06.05.09.13.09.21,0,.09-.03.17-.09.23-.06.06-.14.08-.24.08h-2.92Z"></path><path class="cls-4" d="M153.81,123.55c-.09,0-.17-.03-.24-.09s-.09-.14-.09-.23v-4.29c0-.09.03-.17.1-.23.06-.06.14-.09.23-.09.09,0,.17.03.24.09.06.06.1.14.1.23v3.96h2.34c.09,0,.17.03.24.09s.1.14.1.23-.03.17-.1.23-.14.09-.24.09h-2.67Z"></path><path class="cls-4" d="M158.84,123.55c-.09,0-.17-.03-.24-.09s-.1-.14-.1-.23v-4.29c0-.1.03-.18.1-.24.06-.06.14-.09.24-.09h2.92c.1,0,.18.03.24.09.06.06.09.13.09.22s-.03.16-.09.21c-.06.05-.14.08-.24.08h-2.58v1.54h1.85c.1,0,.18.03.24.09.06.06.09.13.09.22s-.03.16-.09.22-.14.09-.24.09h-1.85v1.86c0,.09-.03.17-.1.23s-.14.09-.24.09Z"></path></g><g><path class="cls-4" d="M75.51,123.55c-.09,0-.17-.03-.24-.09s-.1-.14-.1-.23v-4.29c0-.1.03-.18.1-.24.06-.06.14-.09.24-.09h1.29c.32,0,.61.07.86.21s.44.33.58.58.21.53.21.85-.07.58-.21.82c-.14.24-.33.43-.58.56-.25.14-.54.2-.86.2h-.96v1.39c0,.09-.03.17-.09.23-.06.06-.14.09-.24.09ZM75.84,121.23h.96c.2,0,.37-.04.52-.13.15-.08.27-.2.36-.35.09-.15.13-.32.13-.51,0-.2-.04-.38-.13-.54-.09-.15-.2-.28-.36-.36-.15-.09-.33-.13-.52-.13h-.96v2.01Z"></path><path class="cls-4" d="M80.82,123.55c-.09,0-.17-.03-.24-.09s-.1-.14-.1-.23v-4.29c0-.1.03-.18.1-.24.06-.06.14-.09.24-.09h2.92c.1,0,.18.03.24.09.06.06.09.13.09.22s-.03.16-.09.21c-.06.05-.14.08-.24.08h-2.58v1.54h1.85c.1,0,.18.03.24.09.06.06.09.13.09.22s-.03.16-.09.22c-.06.06-.14.09-.24.09h-1.85v1.58h2.58c.1,0,.18.03.24.08.06.05.09.13.09.21,0,.09-.03.17-.09.23-.06.06-.14.08-.24.08h-2.92Z"></path><path class="cls-4" d="M86.09,123.55c-.12,0-.21-.05-.28-.15-.06-.1-.07-.21-.02-.32l1.81-4.25c.06-.15.17-.22.32-.22.16,0,.26.07.32.22l1.82,4.26c.05.12.04.22-.02.32s-.16.14-.28.14c-.06,0-.13-.02-.18-.05s-.1-.09-.13-.15l-1.6-3.9h.18l-1.63,3.9c-.03.07-.07.12-.13.15-.06.03-.12.05-.18.05ZM86.43,122.46l.26-.54h2.53l.26.54h-3.05Z"></path><path class="cls-4" d="M94.24,123.61c-.35,0-.67-.06-.98-.19-.3-.13-.57-.31-.79-.54-.23-.23-.4-.5-.53-.81s-.19-.64-.19-1,.06-.68.19-.99c.13-.31.3-.57.53-.8.23-.23.49-.41.79-.54.3-.13.63-.2.98-.2.33,0,.62.04.86.13.24.08.48.22.72.42.03.03.06.05.08.08.02.03.03.05.04.08s0,.06,0,.1c0,.08-.03.15-.09.2s-.13.08-.21.09c-.08,0-.16-.02-.24-.08-.16-.13-.32-.24-.49-.31-.17-.07-.4-.11-.67-.11-.25,0-.49.05-.72.15-.22.1-.42.24-.59.42-.17.18-.3.38-.4.62s-.14.48-.14.75.05.52.14.76c.09.23.23.44.4.62.17.18.37.32.59.42.22.1.46.15.72.15.22,0,.43-.04.62-.11.2-.07.38-.18.57-.31.08-.05.15-.08.23-.07.08,0,.14.04.19.09.05.05.08.12.08.22,0,.04,0,.08-.03.12-.02.04-.04.08-.08.11-.23.18-.48.32-.75.41s-.54.14-.84.14Z"></path><path class="cls-4" d="M98.62,123.55c-.09,0-.17-.03-.24-.09s-.1-.14-.1-.23v-4.29c0-.1.03-.18.1-.24.06-.06.14-.09.24-.09h2.92c.1,0,.18.03.24.09.06.06.09.13.09.22s-.03.16-.09.21c-.06.05-.14.08-.24.08h-2.58v1.54h1.85c.1,0,.18.03.24.09.06.06.09.13.09.22s-.03.16-.09.22c-.06.06-.14.09-.24.09h-1.85v1.58h2.58c.1,0,.18.03.24.08.06.05.09.13.09.21,0,.09-.03.17-.09.23-.06.06-.14.08-.24.08h-2.92Z"></path></g><circle class="cls-4" cx="67.82" cy="121.65" r=".97"></circle><circle class="cls-4" cx="109.39" cy="121.65" r=".97"></circle></g></g></svg> 